<?xml version="1.0" encoding="UTF-8" standalone="no"?>
<!-- Created with Inkscape (http://www.inkscape.org/) -->

<svg
   width="86.249901"
   height="86.248848"
   viewBox="0 0 22.820286 22.820007"
   version="1.1"
   id="svg1"
   xmlns="http://www.w3.org/2000/svg"
   xmlns:svg="http://www.w3.org/2000/svg">
  <defs
     id="defs1" />
  <g
     id="layer1"
     transform="translate(-97.102083,-137.05416)">
    <path
       id="path42-6-7-4"
       style="fill:#2dd4bf;fill-opacity:1;stroke-width:0.163525"
       d="m 114.21647,138.58274 -2.71003,4.69409 a 5.9901451,5.9901451 0 0 1 2.19265,8.18244 5.9901451,5.9901451 0 0 1 -2.19044,2.19189 2.7098277,2.7098277 0 0 0 -0.001,7.4e-4 5.9901451,5.9901451 0 0 1 -7.4e-4,7.4e-4 2.7098277,2.7098277 0 0 0 -0.9913,3.70059 2.7098277,2.7098277 0 0 0 3.70133,0.99204 2.7098277,2.7098277 0 0 0 0.23953,-0.15552 11.409801,11.409801 0 0 0 3.93718,-4.02046 11.409801,11.409801 0 0 0 -4.17671,-15.58655 z" />
    <path
       id="path43-1-4-8"
       style="fill:#99f6e4;fill-opacity:1;stroke-width:0.163525"
       d="m 108.51192,137.05416 a 11.409801,11.409801 0 0 0 -11.409837,11.41058 h 5.420047 a 5.9901451,5.9901451 0 0 1 5.98979,-5.99125 5.9901451,5.9901451 0 0 1 2.99526,0.80261 2.7098277,2.7098277 0 0 0 3.70132,-0.9913 2.7098277,2.7098277 0 0 0 -0.99129,-3.70206 11.409801,11.409801 0 0 0 -7.4e-4,0 11.409801,11.409801 0 0 0 -5.70455,-1.52858 z" />
    <path
       id="path44-6-9-6"
       style="fill:#0d9488;fill-opacity:1;stroke-width:0.163525"
       d="m 99.811383,145.75397 a 2.7098277,2.7098277 0 0 0 -2.7093,2.71004 11.409801,11.409801 0 0 0 1.52859,5.70528 11.409801,11.409801 0 0 0 15.586537,4.17598 l -2.71003,-4.69411 a 5.9901451,5.9901451 0 0 1 -8.18317,-2.19189 5.9901451,5.9901451 0 0 1 -0.8026,-2.99526 2.7098277,2.7098277 0 0 0 -2.710027,-2.71004 z" />
    <path
       id="path45-1-4-1"
       style="fill:#2dd4bf;fill-opacity:1;stroke-width:0.163525"
       d="m 114.49956,148.46384 a 5.9901451,5.9901451 0 0 1 -0.8004,2.99526 5.9901451,5.9901451 0 0 1 -2.19043,2.1919 2.7098277,2.7098277 0 0 0 -0.001,7.5e-4 5.9901451,5.9901451 0 0 1 -7.4e-4,7.4e-4 2.7098277,2.7098277 0 0 0 -0.99129,3.70058 2.7098277,2.7098277 0 0 0 3.70133,0.99203 2.7098277,2.7098277 0 0 0 0.23953,-0.15551 11.409801,11.409801 0 0 0 3.93717,-4.02045 11.409801,11.409801 0 0 0 1.52637,-5.7053 z" />
  </g>
</svg>
